<?xml version="1.0" encoding="UTF-8" standalone="no"?>
<!-- Created with Inkscape (http://www.inkscape.org/) -->

<svg
   width="410.21591"
   height="321.99362"
   viewBox="0 0 108.53629 85.194146"
   version="1.1"
   id="svg5"
   xml:space="preserve"
   xmlns="http://www.w3.org/2000/svg"
   xmlns:svg="http://www.w3.org/2000/svg"><defs
     id="defs2" /><g
     id="layer1"
     transform="translate(-171.71458,-52.55286)"><path
       style="fill:#ffffff;fill-opacity:1"
       d="m 223.21685,137.38899 c -2.65921,-0.67931 -4.61494,-1.82601 -7.20649,-4.22532 -2.0238,-1.87368 -2.96253,-3.27495 -2.42287,-3.61667 0.20292,-0.12849 0.56233,-0.23544 0.7987,-0.23767 0.23637,-0.002 0.93567,-0.18255 1.55401,-0.40071 l 1.12426,-0.39666 1.72963,1.61798 c 2.4448,2.28699 4.86331,3.40868 7.3496,3.40868 1.56015,0 2.15182,-0.13472 3.44705,-0.78485 1.70072,-0.85366 3.84106,-2.60983 4.94552,-4.05785 l 0.69846,-0.91573 -3.49539,-1.72933 c -4.96603,-2.45692 -4.7833,-2.19382 -2.56256,-3.68952 l 1.86395,-1.2554 1.9089,0.96151 c 1.04989,0.52882 2.53865,1.17824 3.30834,1.44315 l 1.39945,0.48166 0.52048,-0.84922 c 0.49409,-0.80617 1.73224,-3.91615 2.80431,-7.04389 l 0.4909,-1.43218 2.64583,-1.0984 c 1.45521,-0.60411 3.14711,-1.35862 3.75978,-1.67667 0.61266,-0.31806 1.22698,-0.57828 1.36515,-0.57828 0.13817,0 0.39564,0.85623 0.57216,1.90274 0.30814,1.82685 0.29813,1.92121 -0.25091,2.3658 -0.31452,0.25468 -1.51048,0.84683 -2.65768,1.31588 l -2.08583,0.85282 -0.84409,2.40377 c -0.46424,1.32208 -1.43991,3.53487 -2.16815,4.91732 -5.00237,9.49622 -11.8575,14.03756 -18.59251,12.31704 z m -47.92055,-8.19014 c -2.99921,-1.39651 -4.45002,-5.45289 -3.03747,-8.49256 0.61194,-1.31683 2.22527,-2.88606 3.52296,-3.42666 1.86709,-0.77781 4.56678,-0.40791 6.0341,0.82676 l 0.81651,0.68704 2.69743,-1.40144 c 1.48359,-0.7708 4.21948,-2.2188 6.07975,-3.2178 l 3.38231,-1.81634 1.64477,1.15996 c 0.90463,0.63798 2.18959,1.47374 2.85547,1.85726 1.16614,0.67163 1.2226,0.76191 1.53422,2.45313 0.57498,3.12051 1.83874,4.96041 4.26654,6.2116 1.69764,0.8749 6.07758,0.88714 9.12813,0.0255 4.62972,-1.30765 11.50073,-5.28268 16.66875,-9.64323 4.30159,-3.62949 10.42211,-10.3525 12.53053,-13.76398 0.33522,-0.54241 0.70226,-0.986201 0.81564,-0.986201 0.24508,0 1.86737,2.978921 1.86737,3.428951 0,0.95013 -4.04205,5.92901 -8.18887,10.08681 -10.1851,10.21206 -21.28174,15.97002 -29.91113,15.52064 -6.3318,-0.32974 -10.23138,-3.96905 -11.19672,-10.44942 -0.15716,-1.05503 -0.39418,-1.91823 -0.52671,-1.91823 -0.27399,0 -10.98668,5.48898 -11.49376,5.88919 -0.1819,0.14356 -0.33139,0.75246 -0.3322,1.3531 -0.006,4.68913 -4.8149,7.63797 -9.15762,5.61589 z m 2.06794,-2.94608 c 0.24948,-0.54755 0.22818,-0.74888 -0.11557,-1.09264 -0.6136,-0.61359 -1.78911,-0.2684 -1.78911,0.52537 0,1.28644 1.38857,1.7 1.90468,0.56727 z m 3.49764,0.51063 c 0.60705,-0.23295 0.52061,-1.35364 -0.13133,-1.70255 -0.78744,-0.42142 -1.30224,-0.12398 -1.30224,0.75242 0,1.08153 0.40011,1.34671 1.43357,0.95013 z m -1.21905,-3.20376 c 0.0699,-0.72346 -0.0191,-0.87625 -0.59472,-1.02072 -1.00073,-0.25117 -1.47188,0.0347 -1.47188,0.8931 0,0.97539 0.19883,1.15335 1.18111,1.05713 0.69114,-0.0677 0.81474,-0.19745 0.88549,-0.92951 z m -2.33119,-1.25023 c 0,-0.54348 -0.54775,-0.81052 -0.80587,-0.39288 -0.11965,0.1936 -0.15884,0.44698 -0.0871,0.56307 0.22236,0.35979 0.89296,0.23198 0.89296,-0.17019 z m -1.65285,-0.21169 c -0.1187,-0.35608 0.40088,-0.99455 0.80935,-0.99455 0.35425,0 0.61197,-1.13111 0.32346,-1.41963 -0.40255,-0.40255 -1.06746,0.0444 -1.06746,0.71747 0,0.35055 -0.17859,0.78558 -0.39687,0.96674 -0.52122,0.43258 -0.50818,1.05834 0.0221,1.05834 0.23041,0 0.36967,-0.14777 0.30947,-0.32837 z m 3.76952,-0.97932 c 0,-0.65171 -1.26602,-0.88459 -1.97621,-0.36352 -0.50907,0.37351 -0.49392,0.38537 0.28818,0.2255 0.69628,-0.14232 0.84882,-0.0796 0.97438,0.40052 0.17171,0.6566 0.71365,0.45725 0.71365,-0.2625 z m 91.23077,8.04513 c -2.03586,-1.06008 -3.38585,-3.41666 -3.39109,-5.9196 l -0.002,-0.95014 -5.56882,-2.91041 c -3.06285,-1.60073 -5.74086,-2.94892 -5.95114,-2.99597 -0.28215,-0.0631 -0.38231,0.18225 -0.38231,0.9366 0,1.37108 -0.66252,3.87177 -1.46454,5.52792 -1.37534,2.84005 -5.00736,5.33922 -8.58963,5.91049 -2.25761,0.36002 -3.96875,0.35407 -3.96875,-0.0138 0,-0.16062 0.42082,-1.09287 0.93517,-2.07166 l 0.93516,-1.77963 1.62932,-0.303 c 2.10443,-0.39136 3.82488,-1.46541 4.89374,-3.05509 1.10987,-1.65066 1.39292,-2.74246 1.39472,-5.37972 0.004,-5.39306 -2.71728,-12.66257 -7.39536,-19.758011 -3.32303,-5.04019 -8.94932,-11.17332 -13.97733,-15.23649 -1.34109,-1.08374 -2.43834,-2.05271 -2.43834,-2.15326 0,-0.10056 0.77022,-0.66575 1.71159,-1.25599 l 1.71158,-1.07316 2.19102,1.75475 c 2.94752,2.36061 8.12209,7.56853 10.583,10.65122 5.29693,6.63523 9.20556,14.099991 11.04012,21.084561 0.20204,0.76921 0.47158,1.16503 0.88057,1.29313 0.32418,0.10153 2.07769,0.9823 3.89671,1.95728 8.39849,4.50152 10.02251,5.29904 10.20134,5.00968 0.39981,-0.6469 2.90652,-1.55826 4.29309,-1.56082 5.44935,-0.0101 8.35962,6.22249 4.97662,10.65783 -1.70347,2.23335 -5.52156,2.99903 -8.14445,1.63328 z m 0.57794,-3.88844 c 0.28644,-1.54527 2.12579,-2.48856 2.50749,-1.28595 0.18719,0.58979 0.91863,0.9392 1.25725,0.60058 0.12923,-0.12923 0.43674,-0.63901 0.68336,-1.13285 0.24662,-0.49384 0.78267,-1.05663 1.19122,-1.25065 0.91042,-0.43236 0.86755,-1.23534 -0.066,-1.23534 -0.47683,0 -0.68929,0.18877 -0.83792,0.74452 -0.45488,1.70087 -1.55036,2.10054 -2.60188,0.94927 -0.78483,-0.85928 -1.6027,-0.82682 -1.6027,0.0636 0,0.65877 -0.7571,1.81446 -1.18866,1.81446 -0.50576,0 -1.00802,0.73277 -0.8265,1.20581 0.26876,0.70038 1.32942,0.36204 1.48429,-0.47347 z m -61.89624,-2.17 c -0.17315,-0.20864 -0.70985,-1.48575 -1.19268,-2.83803 -0.48283,-1.35228 -1.04035,-2.54582 -1.23894,-2.6523 -0.19858,-0.10649 -1.34634,-0.60754 -2.55057,-1.11344 -2.91433,-1.22433 -7.1533,-3.7772 -9.5212,-5.73402 -7.90443,-6.53222 -8.86506,-15.498511 -2.42218,-22.607971 1.72125,-1.89934 3.10921,-3.17681 3.26626,-3.00627 0.0502,0.0545 0.33088,0.97991 0.62377,2.0565 l 0.53253,1.95744 -1.44302,1.74673 c -3.83524,4.64244 -4.21593,8.56934 -1.2621,13.019011 1.29325,1.94816 3.48813,4.11995 3.81114,3.77104 0.11541,-0.12466 0.65567,-1.35775 1.20058,-2.74019 1.16964,-2.96743 2.17447,-5.027091 2.45253,-5.027091 0.10959,0 0.71679,0.838701 1.34934,1.863781 l 1.15009,1.86378 -0.66257,1.50966 c -0.97155,2.2137 -1.8441,5.02907 -1.65397,5.33671 0.32089,0.51921 2.6861,1.74264 5.69435,2.94546 l 3.04271,1.2166 0.48158,1.56169 c 0.26486,0.85893 0.88505,2.62278 1.37818,3.91967 0.49314,1.29688 0.84091,2.4481 0.77282,2.55827 -0.12218,0.19768 -2.46021,0.7723 -3.14237,0.7723 -0.1933,0 -0.49312,-0.1707 -0.66628,-0.37933 z m 10.3042,-4.57588 c -6.37618,-5.22735 -12.70969,-12.36822 -16.34856,-18.43257 -3.29236,-5.486891 -5.02323,-9.696011 -6.14861,-14.952201 -0.99921,-4.66693 -0.44886,-9.67874 1.33809,-12.18524 l 0.4643,-0.65127 -3.05412,-3.31748 c -3.77737,-4.1031 -3.6606,-4.00659 -4.47383,-3.69741 -1.08462,0.41238 -3.56892,0.27807 -4.7179,-0.25506 -3.75914,-1.74425 -4.97375,-6.44349 -2.54689,-9.85372 2.6258,-3.68976 8.52036,-3.39218 10.82868,0.54667 0.58361,0.99585 0.70826,1.53264 0.71087,3.06128 0.002,1.01951 -0.0849,2.27038 -0.19244,2.77971 -0.19169,0.90747 -0.1301,0.9941 3.07064,4.319 l 3.26626,3.39295 1.0304,-0.4448 c 2.31539,-0.99949 7.50409,-1.83781 7.85552,-1.26919 0.0814,0.13166 -0.34944,1.08608 -0.95734,2.12094 l -1.10528,1.88156 -1.5875,0.31222 c -4.19123,0.82432 -6.21771,3.64816 -6.21771,8.6642 0,6.80512 3.89206,15.51071 10.78025,24.112751 2.53035,3.15994 8.08257,8.70996 10.87264,10.86833 1.18779,0.91886 2.15961,1.74911 2.15961,1.84501 0,0.27682 -3.0003,2.1385 -3.43958,2.13426 -0.21829,-0.002 -0.93266,-0.44308 -1.5875,-0.97994 z M 187.4981,60.906869 c 0,-0.89234 -0.0916,-1.06773 -0.59531,-1.13926 -0.53012,-0.0753 -0.59531,0.0285 -0.59531,0.94809 0,1.14743 0.17348,1.44176 0.78084,1.32479 0.28826,-0.0555 0.40978,-0.3917 0.40978,-1.13362 z m 2.24896,-0.79013 c 0,-1.80799 -0.047,-1.98438 -0.52917,-1.98438 -0.48213,0 -0.52916,0.17639 -0.52916,1.98438 0,1.80799 0.047,1.98437 0.52916,1.98437 0.48213,0 0.52917,-0.17638 0.52917,-1.98437 z m 2.32702,-0.3998 c 0.0957,-2.75403 -0.0522,-3.43666 -0.74456,-3.43666 -0.48863,0 -0.52413,0.18516 -0.52413,2.73403 0,2.82502 0.0863,3.15946 0.78085,3.02688 0.32405,-0.0618 0.42611,-0.5481 0.48784,-2.32425 z m 31.9341,52.570191 c -4.45368,-3.38961 -7.00904,-8.36659 -7.00904,-13.651291 0,-3.80327 1.08234,-6.96613 3.59755,-10.51294 1.30357,-1.83822 4.76398,-5.1197 5.39886,-5.1197 0.54507,0 3.3195,2.6108 4.9204,4.63021 1.45812,1.8393 3.09659,5.20346 3.51782,7.22292 0.16085,0.77114 0.29246,2.49994 0.29246,3.84177 0,4.457771 -1.54099,8.238521 -4.74801,11.649001 -1.57694,1.677 -3.55287,3.34777 -3.95922,3.34777 -0.0886,0 -0.99351,-0.63349 -2.01082,-1.40774 z m 6.60589,-7.85016 c 2.68161,-5.379361 1.68223,-10.383051 -3.27689,-16.406691 -0.46197,-0.56114 -0.58437,-0.60126 -0.80704,-0.26458 -0.34138,0.51618 -0.33236,2.98275 0.0165,4.49792 0.15075,0.65484 0.73558,2.21575 1.29961,3.46868 1.83551,4.0774 2.24296,6.790081 1.46605,9.760481 l -0.38061,1.45521 0.54382,-0.65893 c 0.29911,-0.36242 0.81148,-1.19585 1.13861,-1.85209 z m -8.72496,-0.19506 c -0.90314,-2.6214 -0.9726,-8.378291 -0.13757,-11.402521 0.39368,-1.42579 0.14306,-1.30476 -0.6146,0.2968 -1.73493,3.66734 -1.63051,7.959381 0.27377,11.252881 0.80274,1.38837 0.98782,1.33144 0.4784,-0.14716 z m 33.904,6.01747 c -0.232,-0.57983 -0.49248,-1.50256 -0.57885,-2.05052 -0.14566,-0.92415 -0.0484,-1.12081 1.34318,-2.71608 0.82512,-0.94588 1.78376,-2.27488 2.13031,-2.95333 1.28872,-2.52293 1.27368,-5.804091 -0.0393,-8.579531 -0.71826,-1.51827 -4.29746,-5.56441 -4.61395,-5.21588 -0.10603,0.11676 -0.46244,1.04572 -0.79203,2.06437 -0.72112,2.22874 -2.57682,6.02259 -2.88834,5.90502 -0.12268,-0.0463 -0.77827,-0.89801 -1.45686,-1.89268 -0.88527,-1.29761 -1.15775,-1.90013 -0.96457,-2.13291 0.39965,-0.48154 2.06469,-4.90174 2.27828,-6.04816 l 0.18514,-0.99373 -2.54982,-1.18346 c -1.40241,-0.6509 -3.37381,-1.43373 -4.38091,-1.73963 l -1.83107,-0.55617 -0.58361,-1.76456 c -0.32099,-0.9705 -1.04187,-2.89067 -1.60196,-4.26703 -0.56009,-1.37637 -1.01835,-2.5873 -1.01835,-2.69096 0,-0.20172 0.72131,-0.37466 2.68077,-0.64274 l 1.22556,-0.16767 0.73609,1.54671 c 0.40484,0.8507 0.98584,2.18674 1.2911,2.96898 l 0.55501,1.42226 3.56876,1.62791 c 3.86951,1.7651 5.51231,2.76733 8.26192,5.04039 7.20188,5.95367 9.03417,13.48568 4.96109,20.393611 -0.89639,1.52029 -4.73672,5.68003 -5.24387,5.68003 -0.13854,0 -0.44171,-0.47441 -0.67371,-1.05424 z M 206.56105,95.347039 c -0.51644,-0.92349 -0.93899,-1.83905 -0.93899,-2.03459 0,-0.73312 4.73132,-6.52266 8.18855,-10.02003 6.41044,-6.48486 13.27867,-11.19134 20.25416,-13.87924 5.49088,-2.11582 11.51035,-2.34438 14.945,-0.56745 l 0.92209,0.47705 3.39501,-3.52919 c 2.7639,-2.87314 3.36194,-3.63044 3.21713,-4.07385 -0.0978,-0.29957 -0.23831,-1.34932 -0.31218,-2.33279 -0.1169,-1.55638 -0.0439,-1.973 0.56367,-3.21472 1.85468,-3.79085 6.75563,-4.80978 9.95645,-2.07 3.56421,3.05084 2.80152,8.84327 -1.4344,10.89384 -1.15114,0.55726 -3.52438,0.70328 -4.92673,0.30315 -0.58431,-0.16673 -0.92586,0.0909 -2.92843,2.20918 -1.24684,1.31886 -2.71412,2.89831 -3.26063,3.50989 l -0.99366,1.11197 0.78543,1.66616 c 0.43199,0.91638 0.91701,2.29709 1.07782,3.06824 0.27433,1.3155 0.41758,5.60937 0.18714,5.60937 -0.24451,0 -3.74801,-2.21833 -3.9256,-2.48559 -0.10691,-0.16089 -0.19621,-0.66581 -0.19844,-1.12204 -0.007,-1.36513 -0.81928,-3.46596 -1.7705,-4.57725 -1.82053,-2.12689 -5.3585,-3.09105 -8.8698,-2.41719 -5.11151,0.98096 -11.24155,3.86684 -16.19097,7.62233 -5.95519,4.51864 -12.36433,11.25958 -15.59975,16.40735 -0.38871,0.61846 -0.81849,1.12448 -0.95506,1.12448 -0.13658,0 -0.67086,-0.75559 -1.18731,-1.67908 z m 54.66608,-33.85464 c 0.24216,-0.45248 0.19183,-0.62793 -0.29267,-1.02026 -0.32182,-0.26059 -0.54474,-0.68529 -0.49537,-0.94377 0.0752,-0.39368 0.42213,-0.48251 2.1374,-0.54724 2.01437,-0.076 2.04765,-0.0668 2.04765,0.56701 0,0.35435 -0.17859,0.71281 -0.39687,0.79657 -0.57271,0.21977 -0.4949,1.42074 0.11312,1.74615 1.12521,0.60219 2.13352,-0.77534 1.15029,-1.57151 -0.28798,-0.23319 -0.51146,-0.711 -0.49663,-1.0618 0.0231,-0.54522 -0.13629,-0.67077 -1.09751,-0.86478 -1.18519,-0.23922 -1.41362,-0.66263 -0.72761,-1.34865 0.56011,-0.5601 0.49257,-1.42317 -0.13776,-1.76052 -0.60659,-0.32463 -0.92997,-0.19191 -1.32336,0.54314 -0.21564,0.40294 -0.16009,0.60771 0.26316,0.97011 0.81675,0.69932 0.69882,1.4001 -0.23561,1.4001 -1.22037,0 -1.60913,0.25569 -1.60913,1.05833 0,0.41116 -0.17551,0.80448 -0.39688,0.88943 -0.5386,0.20668 -0.50354,1.40583 0.0502,1.7157 0.5727,0.32051 1.07826,0.12213 1.44761,-0.56801 z m -58.89988,23.16771 c -0.097,-0.25287 -0.24373,-1.18048 -0.32599,-2.06135 l -0.14956,-1.6016 2.6313,-1.21252 2.6313,-1.21252 0.75025,-2.08394 c 2.69168,-7.47668 7.5631,-13.72094 12.68382,-16.25836 2.132,-1.05645 2.51633,-1.15766 4.77052,-1.25625 3.65836,-0.16 5.85561,0.56639 9.10752,3.0109 1.53499,1.15388 4.26857,4.0917 4.26857,4.58752 0,0.11553 -0.90567,0.47322 -2.0126,0.79485 l -2.0126,0.58478 -1.63325,-1.56832 c -1.84484,-1.77151 -3.77092,-2.85151 -5.81888,-3.2628 -2.657,-0.5336 -6.11991,0.9051 -8.78915,3.65155 -1.87246,1.92662 -1.88478,2.03721 -0.28923,2.59561 1.73578,0.60748 6.53279,3.03395 6.53279,3.30449 0,0.11176 -0.77112,0.70189 -1.7136,1.31141 l -1.7136,1.10821 -2.98276,-1.18472 c -1.64051,-0.65159 -3.22087,-1.22301 -3.51192,-1.2698 -0.4249,-0.0683 -0.72216,0.3059 -1.50866,1.89928 -0.53873,1.09141 -1.35832,3.11547 -1.82132,4.49792 -0.463,1.38245 -0.95397,2.65566 -1.09105,2.82936 -0.13707,0.1737 -1.04388,0.57575 -2.01514,0.89343 -0.97125,0.31768 -2.64588,0.97924 -3.7214,1.47012 -1.07552,0.49088 -1.98552,0.89251 -2.02221,0.89251 -0.0367,0 -0.14612,-0.2069 -0.24315,-0.45976 z"
       id="path1-0" /></g></svg>
